<svg width="648" height="619" viewBox="0 0 648 619" fill="none" xmlns="http://www.w3.org/2000/svg">
<path d="M210.368 144.267C211.383 136.259 213.917 126.037 215.768 118.005L224.371 80.9716C226.12 73.4716 229.641 53.7156 232.723 47.7756C235.863 41.7246 246.109 34.7526 251.594 30.5016C265.94 19.3866 288.445 3.50963 306.135 0.581633C312.676 -0.500367 319.572 0.106638 326.099 0.948638C368.564 6.43064 413.24 23.7506 450.196 44.9766C455.387 47.9586 465.248 53.0716 468.77 57.6546C473.61 63.9526 486.066 117.878 488.738 129.137C507.872 132.711 556.42 141.215 568.57 155.687C568.963 174.983 550.017 185.67 534.865 192.979C548.47 191.506 555.814 191.75 569.179 185.109C563.291 205.575 552.067 220.225 533.226 230.627C530.026 232.39 526.708 233.929 523.295 235.234C531.807 236.287 536.227 236.39 544.731 235.526C533.87 249.279 513.411 255.061 496.756 257.039C522.496 265.533 544.727 285.71 556.624 310.031C559.848 316.621 568.877 338.428 567.669 346.348C567.188 349.505 558.156 355.554 555.456 358.188C570.525 358 616.608 369.558 630.335 380.04C630.933 380.496 632.004 381.949 631.724 382.964C631.369 384.248 630.906 385.68 630.475 386.981C635.85 393.859 644.796 404.635 647.973 412.229C646.471 414.798 644.181 418.675 642.182 420.908C637.679 426.895 631.901 434.75 626.846 440.271C615.093 453.884 603.504 464.123 590.727 476.239C577.612 487.706 563.868 498.431 549.557 508.366C546.188 510.686 540.222 514.889 536.712 516.67C533.163 519.245 515.176 529.743 511.145 531.051C488.645 543.002 459.815 554.261 436.161 563.093C426.782 566.184 415.591 570.043 406.003 572.007C388.326 576.825 372.493 580.849 354.431 583.913C348.157 585.096 325.585 589.385 319.909 589.357C316.378 590.238 309.861 591.1 306.109 591.508C303.062 592.258 281.548 595.251 278.028 595.3C267.516 595.851 257.609 597.093 246.901 597.442C236.927 598.202 228.186 598.26 218.18 598.211C207.071 610.799 195.464 616.743 178.423 618.334C164.547 619.63 146.469 614.984 134.42 607.93C129.43 609.948 125.375 612.076 120.13 614.028C111.087 605.69 105.302 599.173 100.509 587.665C97.4341 586.345 95.2761 585.652 92.0981 584.648C83.7331 582.258 72.4911 579.342 64.8171 575.953L58.3621 574.028C54.0389 572.471 49.7639 570.784 45.5431 568.968C54.4581 533.05 80.6291 508.296 108.912 486.869C107.739 473.341 99.7491 463.002 103.097 450.256C106.864 435.918 122.089 424.474 134.141 417.324C128.291 418.73 118.425 418.785 112.4 418.575C49.8361 416.399 -2.55088 360.578 0.0961189 297.93C0.582043 282.917 4.09939 268.158 10.4366 254.54C16.7738 240.922 25.7999 228.727 36.9721 218.688C59.0591 198.504 90.1351 188.465 119.867 189.722C122.083 187.834 126.802 187.931 129.875 187.675C132.573 187.332 133.973 187.24 136.692 187.239C150.114 175.318 175.664 161.578 191.868 153.057C197.454 150.119 205.437 147.127 210.368 144.267ZM220.665 260.79C230.449 284.527 230.037 313.863 223.548 338.404C230.402 332.163 242 324.273 249.765 319.065C247.688 313.71 243.633 305.881 240.976 300.522C231.956 282.329 226.255 263.062 229.193 242.537C223.401 241.31 218.372 239.597 212.323 238.891C214.995 245.115 219.824 254.419 220.665 260.79Z" fill="#060913"/>
<path d="M506.457 285.953C526.877 306.392 535.024 317.505 535.983 346.864C530.076 352.284 519.97 360.072 513.332 364.878C500.99 373.782 488.464 382.427 475.762 390.809C471.357 393.706 449.224 407.734 447.595 411.067C445.95 412.358 442.81 413.797 440.844 414.787C446.123 420.177 451.446 425.523 456.814 430.825C467.241 441.124 476.627 452.634 486.895 463.037C459.73 486.993 431.674 509.92 402.788 531.769C376.592 551.866 348.388 572.542 319.909 589.356C316.378 590.237 309.861 591.099 306.109 591.507C306.198 591.215 319.754 571.522 320.729 570.265C324.241 564.226 328.988 557.361 332.809 551.354C339.67 540.517 346.432 529.618 353.095 518.658C374.466 483.401 394.7 448.409 417.393 413.827C424.058 402.639 432.208 389.698 439.276 378.807C439.525 379.539 439.732 380.119 440.015 380.847C443.67 376.073 448.865 372.402 452.413 367.888C468.287 347.688 482.632 326.471 495.602 304.298C499.036 298.427 502.372 291.293 506.457 285.953Z" fill="#8B9096"/>
<path d="M417.393 413.828C418.916 417.482 428.056 422.003 431.542 425.518C438.7 432.735 448.484 442.854 452.878 451.852C446.261 445.167 432.955 431.315 422.77 430.725C420.393 430.587 418.459 431.917 417 433.703C409.808 442.538 403.827 452.507 397.599 462.044C381.493 486.707 366.214 512.111 349.505 536.363C342.563 546.44 331.793 563.597 321.835 570.461L320.729 570.266C324.241 564.227 328.988 557.362 332.809 551.355C339.67 540.518 346.432 529.619 353.095 518.659C374.466 483.402 394.7 448.41 417.393 413.828Z" fill="#D0D1D2"/>
<path d="M508.491 391.265C514.771 393.51 525.002 398.967 531.016 402.01C543.517 408.335 555.976 415.004 568.816 420.66C577.962 418.578 593.977 411.94 603.429 408.414L605.908 409.148L606.171 409.828C605.01 410.742 603.68 411.693 602.767 412.826L603.364 413.116C609.222 411.153 610.472 414.325 615.382 413.107C620.172 422.212 623.385 430.579 626.846 440.271C615.093 453.884 603.504 464.123 590.727 476.239C577.612 487.706 563.867 498.431 549.557 508.366C546.188 510.686 540.222 514.889 536.712 516.67C533.163 519.245 515.176 529.743 511.145 531.051L510.014 530.173C499.749 530.018 489.349 531.175 479.104 531.887C477.893 531.971 477.947 531.972 476.932 531.87C480.2 530.061 479.381 531.482 481.708 530.322C481.933 528.233 482.422 526.859 480.59 525.615C478.211 525.929 477.86 526.018 475.67 525.072C463.016 526.712 451.024 528.174 438.362 530.001L437.612 529.551C439.904 528.58 449.352 521.305 454.163 519.012C460.585 514.732 467.269 509.877 473.687 505.468C474.811 504.147 483.044 498.643 485.137 497.137C491.493 492.511 497.812 487.835 504.094 483.109C501.382 479.441 497.852 476.945 495.052 472.829C498.06 469.955 499.851 468.6 503.243 466.133C496.796 455.59 481.465 439.158 472.876 429.793C468.405 424.955 464.229 421.177 459.359 416.806C475.975 408.759 492.359 400.242 508.491 391.265Z" fill="#56606F"/>
<path d="M510.625 404.819C525.652 408.557 541.551 416.877 556.124 422.325C532.551 447.195 509.654 489.906 503.318 523.738C497.335 523.755 481.267 523.974 475.67 525.071C463.016 526.711 451.024 528.173 438.362 530L437.612 529.55C439.904 528.579 449.352 521.304 454.163 519.011C460.585 514.731 467.269 509.876 473.687 505.467C474.811 504.146 483.044 498.642 485.137 497.136C491.493 492.51 497.812 487.834 504.094 483.108C501.382 479.44 497.852 476.944 495.052 472.828C498.06 469.954 499.851 468.599 503.243 466.132C496.796 455.589 481.465 439.157 472.876 429.792C482.94 423.311 493.052 417.058 502.785 410.078C505.19 408.352 508.078 406.217 510.625 404.819Z" fill="#8B9096"/>
<path d="M473.687 505.468C473.76 513.559 461.897 522.855 454.163 519.012C460.585 514.732 467.269 509.877 473.687 505.468Z" fill="#D0D1D2"/>
<path d="M603.364 413.115C609.222 411.152 610.472 414.324 615.382 413.106C620.172 422.211 623.385 430.578 626.846 440.27C615.093 453.883 603.504 464.122 590.727 476.238C577.612 487.705 563.867 498.431 549.557 508.365C546.188 510.685 540.222 514.888 536.712 516.669C536.865 514.167 538.831 510.044 538.974 506.49C539.248 499.651 542.113 492.716 531.926 493.701C539.596 479.927 565.187 438.69 575.597 429.638C583.018 423.185 593.754 418.572 602.536 414.222L603.364 413.115Z" fill="#8B9096"/>
<path d="M603.364 413.115C609.222 411.152 610.472 414.324 615.382 413.106C620.172 422.211 623.385 430.578 626.846 440.27C615.093 453.883 603.504 464.122 590.727 476.238C591.294 473.813 591.632 471.476 592.127 469.059C595.847 450.884 598.873 432.376 602.536 414.222L603.364 413.115Z" fill="#56606F"/>
<path d="M602.767 412.825L603.364 413.115L602.536 414.222C593.754 418.572 583.018 423.185 575.597 429.638C565.187 438.69 539.596 479.927 531.926 493.701C527.916 497.753 525.919 500.834 522.707 505.463C528.549 484.828 544.996 457.256 556.201 439.129C558.229 435.847 562.961 428.349 565.443 425.639C580.307 422.218 588.57 418.758 602.767 412.825Z" fill="#D0D1D2"/>
<path d="M476.932 531.869C477.947 531.971 477.893 531.97 479.104 531.886C489.349 531.174 499.749 530.017 510.014 530.172L511.145 531.05C488.645 543.001 459.815 554.26 436.161 563.092C426.782 566.183 415.591 570.042 406.003 572.006C388.326 576.824 372.493 580.848 354.431 583.912C356.341 581.855 372.034 570.773 376.178 567.566L395.871 552.314C399.725 549.338 403.947 545.612 408.257 543.358C414.256 540.22 467.542 532.574 476.932 531.869Z" fill="url(#paint0_linear_233_136)"/>
<path d="M406.003 572.007C402.649 570.352 399.464 567.675 399.495 563.764C399.691 552.627 411.989 548.819 421.226 548.433C431.835 547.991 435.748 553.278 436.161 563.093C426.782 566.184 415.591 570.043 406.003 572.007Z" fill="#060913"/>
<path d="M419.46 550.374C432.259 549.96 429.49 563.856 417.657 566.788C407.155 566.541 405.824 553.045 419.46 550.374Z" fill="#56606F"/>
<path d="M97.7349 580.303C100.381 571.692 96.0279 551.923 114.811 556.286C124.798 558.606 129.383 572.996 135.328 580.071C141.316 587.464 146.744 592.675 154.621 597.841C151.047 598.921 137.773 605.913 134.42 607.93C129.43 609.948 125.375 612.076 120.13 614.028C111.087 605.69 105.302 599.173 100.509 587.665C99.6439 585.17 98.6919 582.762 97.7349 580.303Z" fill="#3F4858"/>
<path d="M107.635 573.012C107.113 563.228 114.733 564.16 119.696 570.118C120.321 570.868 120.99 571.964 121.591 572.784L122.265 572.677C124.747 576.453 126.716 579.063 125.982 583.944C125.348 588.16 119.529 592.75 115.376 591.364C109.413 589.374 104.693 578.442 106.37 572.549L106.831 572.544L107.401 574.048L107.635 573.012Z" fill="#060913"/>
<path d="M107.635 573.012C107.113 563.228 114.733 564.16 119.696 570.118C120.321 570.868 120.99 571.964 121.591 572.784C121.507 574.132 121.468 575.72 121.244 577.026C119.097 576.653 115.117 577.49 113.95 576.876C110.924 575.283 111.982 573.859 107.635 573.012Z" fill="#9EA1A5"/>
<path d="M107.635 573.012C111.982 573.859 110.924 575.283 113.95 576.876C115.117 577.49 119.097 576.653 121.244 577.026C117.061 585.724 109.849 580.666 107.401 574.048L107.635 573.012Z" fill="#8B9096"/>
<path d="M484.989 269.587C493.329 267.409 495.823 267.451 503.666 272.034C528.2 286.371 544.564 308.528 551.65 336.016C552.279 338.473 552.817 340.952 553.262 343.448C549.438 346.866 545.469 349.673 541.375 352.727C514.288 372.938 485.534 390.426 455.972 406.741C453.14 408.304 450.577 409.772 447.595 411.067C449.224 407.734 471.357 393.706 475.762 390.809C488.464 382.427 500.99 373.782 513.332 364.878C519.97 360.072 530.076 352.284 535.983 346.864C535.024 317.505 526.877 306.392 506.457 285.953C502.56 282.321 496.656 276.513 492.148 274.035C489.657 271.647 488.088 270.718 484.738 270.677L484.989 269.587Z" fill="url(#paint1_linear_233_136)"/>
<path d="M116.186 508.022C119.236 512.458 120.647 514.364 124.692 518.028C122.947 546.219 136.419 577.285 160.484 592.844C158.262 593.626 157.29 594.202 155.998 596.297L154.621 597.84C146.744 592.674 141.316 587.463 135.328 580.07C129.383 572.995 124.798 558.605 114.811 556.285C96.0281 551.922 100.381 571.691 97.7351 580.302C94.2111 570.762 90.3781 552.446 91.9941 542.539L92.3231 547.204C92.8841 547.002 108.031 514.001 116.186 508.022Z" fill="#8B9096"/>
<path d="M265.265 547.285C269.84 551.84 274.233 557.284 278.905 561.863C283.784 566.646 288.895 570.988 293.821 575.746C289.392 581.53 283.661 593.768 278.028 595.299C267.516 595.85 257.609 597.092 246.901 597.441L243.132 586.082C253.033 576.242 263.288 568.69 258.713 553.36L265.265 547.285Z" fill="#3F4858"/>
<path d="M479.941 277.525C480.784 275.685 479.24 272.957 482.347 271.938C485.738 270.825 488.347 273 491.217 273.789L492.148 274.036C496.656 276.514 502.56 282.322 506.457 285.954C502.372 291.294 499.036 298.428 495.602 304.299C482.632 326.472 468.287 347.689 452.413 367.889C448.865 372.403 443.67 376.074 440.015 380.848C439.753 380.173 439.506 379.493 439.276 378.808C440.291 375.485 454.55 352.366 457.581 346.746C468.912 325.741 480.769 304.728 492.458 283.91C488.366 281.873 483.898 279.756 479.941 277.525Z" fill="#56606F"/>
<path d="M495.052 472.828C497.852 476.944 501.382 479.44 504.094 483.108C497.812 487.834 491.493 492.51 485.137 497.136C483.044 498.642 474.811 504.146 473.687 505.467C467.269 509.876 460.585 514.731 454.163 519.011C449.352 521.304 439.904 528.579 437.612 529.55L438.362 530C436.813 530.751 423.531 533.061 420.453 533.849C431.259 524.671 443.587 515.012 454.671 505.975L495.052 472.828Z" fill="#56606F"/>
<path d="M129.875 187.675C159.499 187.328 200.592 210.923 212.323 238.891C214.995 245.115 219.824 254.419 220.665 260.79C217.984 257.641 212.221 246.167 209.569 241.98C194.78 218.87 171.964 202.048 145.514 194.753C136.547 192.318 128.679 191.708 119.867 189.722C122.083 187.834 126.802 187.931 129.875 187.675Z" fill="#FDFDFD"/>
<path d="M85.6018 549.16C86.1468 558.85 86.8638 567.978 90.2688 577.076C90.9788 578.973 92.6338 582.912 92.0978 584.647C83.7328 582.257 72.4908 579.341 64.8168 575.952L58.3618 574.027C58.4418 572.972 58.5968 571.916 58.7298 570.864L59.3528 571.648C60.8418 570.211 61.2818 569.851 63.1198 568.923C70.3268 563.01 78.3898 555.415 85.6018 549.16Z" fill="#56606F"/>
<path d="M58.7298 570.865L59.3528 571.649C60.8418 570.212 61.2818 569.852 63.1198 568.924L61.7898 570.936C62.4428 571.925 64.5388 575.589 64.8168 575.953L58.3618 574.028C58.4418 572.973 58.5968 571.917 58.7298 570.865Z" fill="#8B9096"/>
<path d="M616.029 403.383L621.063 401.29C629.355 408.22 635.183 412.493 642.182 420.908C637.679 426.895 631.901 434.75 626.846 440.271C623.385 430.579 620.172 422.212 615.382 413.107C613.048 406.942 613.043 409.036 616.029 403.383Z" fill="#8B9096"/>
<path d="M88.729 522.315C86.315 531.056 86.085 540.147 85.602 549.16C78.39 555.415 70.327 563.01 63.12 568.923C61.282 569.851 60.842 570.211 59.353 571.648L58.73 570.864C62.678 552.965 75.64 534.931 88.729 522.315Z" fill="#D0D1D2"/>
<path d="M195.335 579.915C198.617 583.171 202.71 588.339 205.789 590.83C197.312 599.051 190.513 604.198 178.169 604.222C172.862 604.232 158.658 600.621 155.998 596.298C157.29 594.203 158.262 593.627 160.484 592.845C163.832 594.532 166.505 596.107 170.237 596.715C180.696 598.417 189.379 592.363 193.802 583.256C194.333 582.152 194.845 581.038 195.335 579.915Z" fill="url(#paint2_linear_233_136)"/>
<path d="M91.9941 542.54C92.7441 522.797 95.8521 511.664 111.602 499.422C113.137 502.101 114.721 505.264 116.186 508.023C108.031 514.002 92.8842 547.003 92.3232 547.205L91.9941 542.54Z" fill="#FDFDFD"/>
<path d="M603.429 408.414C607.732 406.596 611.625 404.994 616.029 403.383C613.043 409.036 613.048 406.942 615.382 413.107C610.472 414.325 609.222 411.153 603.364 413.116L602.767 412.826C603.68 411.693 605.01 410.742 606.171 409.828L605.908 409.148L603.429 408.414Z" fill="#56606F"/>
<path d="M484.738 270.678C488.088 270.719 489.657 271.648 492.148 274.036L491.217 273.789C488.347 273 485.738 270.825 482.347 271.938C479.24 272.957 480.784 275.685 479.941 277.525C477.657 276.57 473.053 274.994 472.117 272.881C475.645 273.835 481.113 271.8 484.738 270.678Z" fill="#707782"/>
<path d="M472.117 272.881C476.286 271.353 480.599 270.25 484.989 269.588L484.738 270.678C481.113 271.8 475.645 273.835 472.117 272.881Z" fill="#9EA1A5"/>
<path d="M377.171 164.658C383.8 163.019 392.044 161.299 398.415 159.377C404.668 166.665 410.886 173.921 417.676 180.712C419.315 182.352 420.929 184.009 422.423 185.784C427.571 191.159 425.95 207.663 426.102 215.876C431.138 217.682 435.43 219.192 440.595 220.662C442.794 213.824 446.488 198.201 450.831 193.136C460.713 174.275 488.541 171.861 495.016 193.857C500.041 210.929 492.045 238.86 477.547 249.767C469.723 258.166 456.331 260.178 445.451 259.091C438.626 297.981 411.048 337.729 378.694 359.964C362.135 371.344 325.314 392.353 305.564 381.038C293.834 376.484 290.73 363.68 285.024 353.379C269.232 324.869 247.797 296.453 241.774 263.886C240.349 256.186 241.631 244.368 243.521 236.854C244.621 236.908 252.683 235.191 256.085 234.981L258.35 235.942L259.518 235.313C262.914 236.576 270.149 238.694 272.684 239.981C267.645 260.363 264.412 281.93 287.996 291.635C300.654 294.082 309.391 292.444 316.206 280.788C303.603 284.267 295.816 283.64 285.946 274.042L285.475 273.516C274.786 261.773 283.19 237.381 285.779 223.244C287.091 215.809 288.042 208.314 288.629 200.787C288.956 196.102 289.08 192.069 289.125 187.369C286.377 186.08 284.499 185.201 281.892 183.624C291.912 182.382 301.885 180.787 311.792 178.84C319.754 177.262 329.233 174.914 337.033 173.689C327.753 178.053 321.751 181.764 317.275 191.433C321.921 188.53 325.127 186.93 330.262 184.897C324.774 196.996 326.187 203.136 336.059 212.05L336.773 212.107C324.333 180.348 362.251 162.995 382.824 179.534C386.393 178.186 389.351 182.091 392.445 179.728C392.284 174.187 381.526 167.156 377.171 164.658Z" fill="#FEC083"/>
<path d="M336.773 212.107C324.333 180.348 362.251 162.995 382.824 179.534C386.223 184.402 389.545 191.056 390.73 196.881C391 202.602 390.972 204.767 389.371 210.253C390.549 214.477 388.501 213.571 388.153 216.518C386.042 218.434 385.064 218.477 383.859 220.906L383.125 220.605C379.811 221.999 378.545 222.892 375.038 222.523C358.855 228.029 347.279 226.47 336.773 212.107Z" fill="#FDFDFD"/>
<path d="M389.371 210.253C390.549 214.477 388.501 213.571 388.153 216.518C386.042 218.434 385.064 218.477 383.859 220.906L383.125 220.605C379.811 221.999 378.545 222.892 375.038 222.523C382.909 219.135 385.783 218.016 389.371 210.253Z" fill="#D98E5A"/>
<path d="M361.272 176.329C366.022 176.093 368.181 176.879 372.545 178.361C368.872 180.305 366.049 182.016 366.124 186.757C366.181 190.373 370.276 194.16 373.998 193.495C377.694 192.835 376.354 188.967 378.499 186.196L379.735 186.602C380.144 187.072 380.644 187.71 380.765 188.33C382.58 197.64 382.478 204.349 378.046 212.493C373.745 218.097 367.544 220.259 360.95 217.093C345.542 209.697 342.904 182.117 361.272 176.329Z" fill="#060913"/>
<path d="M438.468 255.657C441.079 257.093 442.678 257.908 445.451 259.09C438.626 297.98 411.048 337.728 378.694 359.963C362.135 371.343 325.314 392.352 305.564 381.037C305.972 379.526 305.055 378.951 304.179 377.763C305.342 377.143 317.505 377.237 320.927 376.472C367.376 366.086 405.607 329.093 426.233 287.267C431.323 276.947 434.855 266.541 438.468 255.657Z" fill="#D98E5A"/>
<path d="M243.521 236.853C244.621 236.907 252.683 235.19 256.085 234.98L258.35 235.941C260.398 237.089 260.419 236.635 260.962 238.285C259.835 241.931 255.391 246.481 254.863 249.076C246.236 291.5 284.198 326.402 298.126 363.537C299.942 368.379 302.782 373.013 304.179 377.763C305.055 378.951 305.972 379.526 305.564 381.037C293.834 376.483 290.73 363.679 285.024 353.378C269.232 324.868 247.797 296.452 241.774 263.885C240.349 256.185 241.631 244.367 243.521 236.853Z" fill="#FEE2BA"/>
<path d="M281.892 183.623C291.912 182.382 301.885 180.786 311.792 178.839C319.754 177.261 329.233 174.913 337.033 173.688C327.753 178.052 321.751 181.763 317.275 191.432C321.921 188.529 325.127 186.929 330.262 184.896C324.774 196.995 326.187 203.135 336.059 212.049C332.92 211.229 329.023 209.465 325.744 208.489C316.886 205.851 300.318 201.164 291.359 201.196L288.629 200.786C288.956 196.101 289.08 192.068 289.125 187.368C286.377 186.079 284.499 185.2 281.892 183.623Z" fill="#E37746"/>
<path d="M288.629 200.787L291.359 201.197C294.469 203.073 296.981 202.331 299.784 203.558C298.811 204.494 298.14 204.256 296.459 204.48C298.065 204.636 298.087 204.522 299.599 205.104C299.549 209.141 297.936 214.723 297.258 218.941C295.092 232.42 291.398 264.583 303.034 274.866C299.175 274.877 288.518 273.653 285.946 274.042L285.475 273.516C274.786 261.773 283.19 237.381 285.779 223.244C287.091 215.809 288.042 208.314 288.629 200.787Z" fill="#FEE2BA"/>
<path d="M474.411 188.538C478.658 187.84 479.678 187.924 483.716 189.42C478.649 192.254 478.745 197.433 478.369 202.722C477.251 218.411 473.747 237.087 455.951 241.844C457.105 236.547 464.093 219.015 466.307 212.703C461.557 215.729 458.234 219.747 453.351 222.874C455.517 209.611 461.282 194.265 474.411 188.538Z" fill="#AC4326"/>
<path d="M377.171 164.658C383.8 163.019 392.044 161.299 398.415 159.377C404.668 166.665 410.886 173.921 417.676 180.712C419.315 182.352 420.929 184.009 422.423 185.784C415.898 185.708 392.503 183.192 391.235 194.032C391.065 195.486 391.669 195.239 390.73 196.881C389.545 191.056 386.223 184.402 382.824 179.534C386.393 178.186 389.351 182.091 392.445 179.728C392.284 174.187 381.526 167.156 377.171 164.658Z" fill="#E37746"/>
<path d="M450.831 193.135C460.713 174.274 488.541 171.86 495.016 193.856C500.041 210.928 492.045 238.859 477.547 249.766C476.451 250.026 475.374 250.36 474.323 250.765L473.589 250.072C473.355 246.057 479.106 241.143 481.377 237.428C487.494 227.422 496.933 196.476 483.716 189.419C479.678 187.923 478.658 187.839 474.411 188.537C473.617 187.985 472.858 187.386 472.136 186.742C464.508 185.665 461.361 194.912 456.259 197.064L455.478 196.738L455.232 195.199L455.736 194.662L456.954 195.753C459.281 193.7 462.964 189.256 465.422 188.274L465.424 187.22C463.403 185.218 463.239 185.244 462.358 182.593C457.855 183.484 454.952 188.927 452.245 192.245C451.752 192.848 451.626 193.558 450.831 193.135Z" fill="#FEE2BA"/>
<path d="M303.034 274.866C318.615 275.004 324.442 272.617 337.479 265.712C329.859 280.315 323.604 290.492 306.979 296.523C301.517 298.505 292.078 295.609 287.996 291.635C300.654 294.082 309.391 292.444 316.206 280.788C303.603 284.267 295.816 283.64 285.946 274.042C288.518 273.653 299.175 274.877 303.034 274.866Z" fill="url(#paint3_linear_233_136)"/>
<path d="M391.607 220.479C391.802 224.794 400.529 227.986 398.717 232.102C393.756 234.906 382.219 236.689 378.329 231.938C375.226 228.148 383.831 223.844 385.151 222.598C386.94 221.855 389.69 221.084 391.607 220.479Z" fill="#FEE2BA"/>
<path d="M388.153 216.518C392.792 214.381 406.439 212.616 409.4 217.708C407.508 220.955 396.143 218.642 391.607 220.479C389.69 221.084 386.94 221.855 385.151 222.598L383.859 220.906C385.064 218.477 386.042 218.434 388.153 216.518Z" fill="#E37746"/>
<path d="M373.54 257.468C379.376 257.171 383.848 257.496 388.749 261.252C391.273 263.186 396.513 270.198 393.529 273.133C392.061 272.65 387.269 268.16 385.79 266.876C385.017 267.908 384.235 268.934 383.446 269.954C366.746 291.49 332.056 307.66 305.502 311.08C297.881 311.993 294.061 310.941 287.599 307.25C315.173 309.977 366.664 286.437 381.43 262.837C378.269 260.602 373.195 259.424 372.058 258.146L373.54 257.468Z" fill="#060913"/>
<path d="M359.921 302.266L360.113 302.452L360.122 303.238C351.289 319.616 338.448 328.116 319.607 322.503C318.007 321.8 316.574 321.589 316.089 320.406C329.346 318.542 349.742 311.368 359.921 302.266Z" fill="#AC4326"/>
<path d="M13.4881 316.733C8.99709 299.759 13.7021 272.79 21.5191 256.917C27.5645 244.876 35.9287 234.148 46.1316 225.349C56.3344 216.55 68.1749 209.853 80.9731 205.643C91.6921 202.043 101.001 200.666 112.295 200.363C159.712 199.09 196.519 226.546 211.432 271.194C214.664 283.442 218.036 306.453 213.705 318.467C213.738 322.184 212.078 326.996 211.04 330.52C205.231 350.239 193.162 367.043 177.19 379.817C174.83 381.704 169.877 385.015 168.033 387.054C167.892 386.724 168.042 386.964 167.228 386.221C166.457 387.008 166.498 388.103 166.083 389.441C166.124 387.783 166.399 385.75 164.99 384.747C161.719 386.574 159.022 388.035 155.977 390.205L155.1 390.379C152.728 390.351 145.03 394.484 141.538 395.682C133.083 398.584 123.72 400.798 114.733 400.28C108.843 400.598 103.091 400.159 97.2461 399.502C96.7011 397.453 96.3561 394.198 96.0551 392.011C93.4181 391.253 91.0341 391.501 87.5881 390.227C87.4411 391.868 87.5211 393.803 86.4951 394.965C84.0751 395.694 83.5641 394.807 81.4161 395.171C79.2211 394.883 74.3941 392.923 72.2981 391.973C42.6561 378.526 18.1211 349.34 13.4881 316.733Z" fill="#FDFDFD"/>
<path d="M208.555 310.783C210.228 309.837 210.259 309.957 212.115 310.001C215.104 312.075 213.213 315.269 213.705 318.466C213.738 322.183 212.078 326.995 211.04 330.519C205.231 350.238 193.162 367.043 177.19 379.817C174.83 381.704 169.877 385.015 168.033 387.054C167.892 386.724 168.042 386.963 167.228 386.22C166.457 387.007 166.498 388.102 166.083 389.44C166.124 387.782 166.399 385.749 164.99 384.746C161.719 386.573 159.022 388.035 155.977 390.205L155.1 390.378C152.728 390.35 145.03 394.483 141.538 395.681C133.083 398.583 123.72 400.797 114.733 400.279C108.843 400.597 103.091 400.159 97.2462 399.502C96.7012 397.453 96.3562 394.197 96.0552 392.01C96.6422 392.083 100.053 392.465 100.442 392.569C155.265 397.074 201.256 367.208 208.555 310.783Z" fill="url(#paint4_linear_233_136)"/>
<path d="M96.0552 392.011C96.6422 392.084 100.053 392.466 100.442 392.57C103.972 394.822 104.813 398.212 107.948 399.421C109.842 400.152 111.808 398.955 114.733 400.28C108.843 400.598 103.091 400.159 97.2462 399.502C96.7012 397.453 96.3562 394.198 96.0552 392.011Z" fill="#8B9096"/>
<path d="M13.4878 316.732C14.7778 318.667 16.3468 327.201 16.8568 327.401C16.9558 325.331 16.9048 324.954 16.5718 322.888L17.3098 321.286C17.8898 324.742 19.4498 328.182 20.7918 331.419C28.5793 349.907 41.6477 365.687 58.3608 376.783C68.5188 383.555 76.0658 386.427 87.5878 390.226C87.4408 391.867 87.5208 393.802 86.4948 394.964C84.0748 395.693 83.5638 394.806 81.4158 395.17C79.2208 394.882 74.3938 392.922 72.2978 391.972C42.6558 378.525 18.1208 349.339 13.4878 316.732Z" fill="url(#paint5_linear_233_136)"/>
<path d="M211.432 271.193C214.664 283.441 218.036 306.452 213.705 318.466C213.213 315.269 215.104 312.075 212.115 310.001C210.259 309.957 210.228 309.837 208.555 310.783C209.386 296.064 209.091 290.041 205.507 275.846L206.794 275.878C207.856 274.53 207.498 274.367 207.63 272.246L211.432 271.193Z" fill="url(#paint6_linear_233_136)"/>
<path d="M205.507 275.847C204.334 272.135 203.169 269.21 202.121 265.329L202.389 265.177C203.41 267.001 204.379 268.788 205.508 270.549C206.45 269.98 206.005 270.036 206.772 270.088L207.63 272.247C207.498 274.368 207.856 274.531 206.794 275.879L205.507 275.847Z" fill="#BFD9E5"/>
<path d="M113.986 207.603C119.408 204.609 129.659 207.373 135.691 208.624C144.46 210.325 150.158 213.242 158.436 216.374C155.859 217.285 155.03 214.629 151.245 215.777C153.343 217.539 153.492 216.229 154.751 218.387C195.086 240.112 212.789 288.578 195.952 331.185C179.115 373.792 133.064 397.065 88.7739 385.348C44.4839 373.631 15.9649 330.632 22.3989 285.273C28.8329 239.914 68.1849 206.541 113.986 207.603Z" fill="#060913"/>
<path d="M135.691 208.624C144.46 210.325 150.158 213.242 158.436 216.374C155.859 217.285 155.03 214.629 151.245 215.777C153.343 217.539 153.492 216.229 154.751 218.387C148.137 214.825 141.104 212.101 133.815 210.278C133.136 209.952 132.472 209.594 131.826 209.205C132.588 208.659 134.534 208.718 135.691 208.624Z" fill="#BFD9E5"/>
<path d="M113.986 207.603C119.408 204.609 129.659 207.373 135.691 208.624C134.534 208.718 132.588 208.659 131.826 209.205C132.472 209.594 133.135 209.952 133.815 210.278C127.325 208.655 120.674 207.758 113.986 207.603Z" fill="url(#paint7_linear_233_136)"/>
<path d="M32.4582 306.799C28.6012 269.65 50.9402 234.768 86.2972 222.733C121.653 210.697 160.635 224.705 180.243 256.493C189.933 272.205 193.897 290.782 191.464 309.081C189.03 327.379 180.348 344.275 166.888 356.908C153.428 369.54 136.017 377.134 117.601 378.404C99.1846 379.674 80.8955 374.541 65.8292 363.875C56.5236 357.286 48.7326 348.785 42.9775 338.942C37.2224 329.099 33.636 318.14 32.4582 306.799Z" fill="url(#paint8_linear_233_136)"/>
<path d="M32.4582 306.799C28.6012 269.65 50.9402 234.768 86.2972 222.733C121.653 210.697 160.635 224.705 180.243 256.493C177.127 254.945 171.222 243.07 166.419 241.063C165.904 242.182 166.025 242.033 165.802 243.289C164.638 244.477 164.39 244.49 162.924 245.213L162.565 246.358C166.437 251.264 170.313 255.305 172.322 261.267C167.946 254.608 164.991 250.587 159.849 244.74L159.322 245.884C157.558 243.754 156.677 242.781 154.642 240.918C153.744 240.464 151.373 238.057 149.825 236.953C146.566 241.451 143.265 249.316 140.247 252.854L140.121 253.104C136.377 258.408 133.272 264.278 129.608 269.552C120.494 282.671 108.866 295.99 96.6892 306.348C91.5204 310.678 86.1628 314.778 80.6322 318.635C79.5772 319.381 72.8752 323.941 72.3802 324.415L72.4242 326.112C73.6162 327.802 74.9182 330.623 75.8632 332.516C81.2812 343.375 88.1382 353.232 95.1632 363.121C45.6762 351.385 40.1762 301.501 33.3382 299.04C32.9532 301.743 33.6292 304.705 32.4582 306.799Z" fill="url(#paint9_linear_233_136)"/>
<path d="M140.247 252.854C132.239 247.182 125.864 243.194 116.76 239.033C111.535 236.645 105.013 235.769 100.207 233.226C99.7049 232.96 100.02 231.293 100.075 230.461L99.1309 229.431L99.4819 228.72C102.214 226.78 105.826 226.488 109.101 226.018C123.145 224.002 138.578 228.166 149.825 236.953C146.566 241.451 143.265 249.316 140.247 252.854Z" fill="#FDFDFD"/>
<path d="M72.38 324.415L72.424 326.112C68.158 329.231 65.765 330.157 60.75 331.252L72.38 324.415Z" fill="#40A6E4"/>
<path d="M154.642 240.918C157.025 240.416 158.441 242.957 159.849 244.74L159.322 245.884C157.558 243.754 156.677 242.781 154.642 240.918Z" fill="#40A6E4"/>
<path d="M82.4412 234.933C103.879 236.643 103.054 266.795 75.8412 270.23C50.4782 266.307 59.7862 238.114 82.4412 234.933Z" fill="#FDFDFD"/>
<path d="M58.5639 277.359C71.3579 276.028 73.3339 288.691 62.0049 294.083C60.2899 294.352 58.3458 294.488 56.6778 293.896C55.7514 293.57 54.9007 293.059 54.1771 292.395C53.4536 291.73 52.8721 290.926 52.4679 290.031C49.9599 284.47 53.3679 279.521 58.5639 277.359Z" fill="#FDFDFD"/>
<path d="M172.322 261.267C170.313 255.305 166.437 251.264 162.565 246.358L162.924 245.212C164.39 244.489 164.638 244.477 165.802 243.289C166.025 242.033 165.904 242.181 166.419 241.062C171.222 243.069 177.127 254.944 180.243 256.492C186.889 267.267 190.885 279.463 191.904 292.081C192.924 304.699 190.937 317.378 186.106 329.08C181.276 340.781 173.74 351.17 164.117 359.395C154.495 367.619 143.059 373.445 130.748 376.395C129.921 377.912 132.432 371.489 131.988 373.052C125.453 370.223 121.635 368.683 115.438 365.086C125.469 362.027 134.704 359.075 144.233 354.566C166.292 344.129 182.036 319.587 181.079 294.991C181.439 281.209 177.786 273.32 172.322 261.267Z" fill="#BFD9E5"/>
<path d="M149.825 236.953C151.373 238.057 153.744 240.464 154.642 240.918C156.677 242.781 157.558 243.754 159.322 245.884L159.849 244.74C164.991 250.587 167.946 254.608 172.322 261.267C177.786 273.32 181.439 281.209 181.079 294.991C178.733 292.887 177.343 290.991 174.323 289.299C172.783 288.436 171.415 286.087 171.262 284.183L170.984 280.244C170.641 282.863 170.77 285.969 170.785 288.648C164.702 278.591 149.768 260.289 140.121 253.104L140.247 252.854C143.265 249.316 146.566 241.451 149.825 236.953Z" fill="#BFD9E5"/>
<path d="M159.849 244.739C164.991 250.586 167.946 254.607 172.322 261.266C177.786 273.319 181.439 281.208 181.079 294.99C178.733 292.886 177.343 290.99 174.323 289.298C172.783 288.435 171.415 286.086 171.262 284.182L170.984 280.243C170.603 266.533 167.566 257.06 159.322 245.883L159.849 244.739Z" fill="#3496CF"/>
<path d="M303.127 16.9361C315.232 10.8501 361.587 22.3111 375.267 27.2161C384.519 30.5331 400.677 36.1431 409.442 40.8641C416.847 43.7171 431.738 50.8821 437.696 55.8391C442.79 58.7781 451.056 63.2911 455.636 66.7641C459.387 75.6201 466.647 102.681 468.418 112.484C463.961 110.751 457.747 108.536 453.529 106.605C439.818 102.729 429.954 99.4111 415.576 96.0841C380.63 87.4151 327.59 84.7801 292.46 89.1601C284.963 90.3221 276.504 91.6811 269.15 93.6521C259.302 96.1441 253.162 98.7761 243.959 101.664L233.974 106.319C236.332 95.2266 238.766 84.1503 241.275 73.0911C242.622 67.0841 244.334 58.3891 246.334 52.7741C258.232 43.3501 266.143 37.7201 279.03 29.9681C280.94 27.9671 289.86 23.0761 292.541 21.9871C296.013 20.0201 299.449 18.4551 303.127 16.9361Z" fill="#8B9096"/>
<path d="M303.127 16.9355C303.448 18.1715 300.184 29.8295 299.601 33.0195C297.34 45.2192 295.533 57.4987 294.183 69.8326C293.483 75.7936 292.478 83.2565 292.46 89.1595C284.963 90.3215 276.504 91.6806 269.15 93.6516C259.302 96.1436 253.162 98.7756 243.959 101.664L233.974 106.319C236.332 95.226 238.766 84.1497 241.275 73.0905C242.622 67.0835 244.334 58.3885 246.334 52.7735C258.232 43.3495 266.143 37.7195 279.03 29.9675C280.94 27.9665 289.86 23.0755 292.541 21.9865C296.013 20.0195 299.449 18.4545 303.127 16.9355Z" fill="#8B9096"/>
<path d="M303.127 16.9355C303.448 18.1715 300.184 29.8295 299.601 33.0195C297.34 45.2192 295.532 57.4987 294.183 69.8326C293.483 75.7936 292.478 83.2565 292.46 89.1595C284.963 90.3215 276.504 91.6806 269.15 93.6516C270.061 91.6826 270.613 89.5875 271.248 87.5175C274.813 75.9055 278.118 64.1816 282.536 52.8546C285.288 45.9551 288.219 39.1282 291.325 32.3806C292.416 30.0086 295.763 24.2475 296.053 22.5885L295.368 21.9256L292.541 21.9865C296.013 20.0195 299.449 18.4545 303.127 16.9355Z" fill="#D0D1D2"/>
<path d="M279.03 29.9678C278.706 34.0078 258.32 51.6048 255.293 55.5008C251.037 60.9808 242.591 97.2098 243.959 101.664L233.974 106.319C236.332 95.2262 238.766 84.15 241.275 73.0908C242.622 67.0838 244.334 58.3888 246.334 52.7738C258.232 43.3498 266.143 37.7198 279.03 29.9678Z" fill="#FDFDFD"/>
<path d="M409.442 40.8633C416.847 43.7163 431.738 50.8813 437.696 55.8383C442.79 58.7773 451.056 63.2903 455.636 66.7633C459.387 75.6193 466.647 102.68 468.418 112.483C463.961 110.75 457.747 108.535 453.529 106.604C439.818 102.728 429.954 99.4103 415.576 96.0833C417.577 88.9783 410.879 49.7783 409.442 40.8633Z" fill="#56606F"/>
<path d="M437.696 55.8389C442.79 58.7779 451.056 63.2909 455.636 66.7639C459.387 75.6199 466.647 102.681 468.418 112.484C463.961 110.751 457.747 108.536 453.529 106.605C453.761 97.8729 440.477 66.5889 437.696 55.8389Z" fill="#8B9096"/>
<path d="M319.736 20.9062C348.161 26.3593 377.383 36.6782 403.992 47.9172C401.099 53.7612 400.545 54.7492 395.807 59.1602C373.516 76.8302 341.365 65.3672 329.518 41.5542C326.016 34.5152 322.673 28.2993 319.736 20.9062Z" fill="#56606F"/>
<path d="M121.3 443.912C123.166 440.985 129.856 435.083 132.704 433.094C147.96 422.44 165.077 414.268 183.957 416.999C197.337 420.887 209.841 432.846 206.866 447.934C186.857 442.882 170.745 448.404 152.517 457.565C150.767 458.445 147.751 460.526 147.245 462.338C164.473 457.311 182.673 450.657 200.442 453.996C210.168 455.641 221.716 462.662 227.489 470.727C232.139 477.222 232.188 482.519 231.498 489.963C217.315 483.303 209.238 482.318 193.927 486.044C188.613 487.337 184 488.303 178.68 490.241C175.615 491.385 172.61 492.687 169.679 494.142L169.498 494.718L169.666 494.93C180.75 493.564 200.664 489.107 210.576 490.161C224.124 492.054 239.095 502.749 236.158 517.523C235.926 518.687 235.808 519.132 235.139 520.145C232.034 521.805 223.785 516.628 218.852 516.73C209.237 516.929 184.158 519.936 178.648 528.925C176.475 532.47 184.817 548.605 186.786 553.516C182.414 554.263 179.287 554.822 174.819 554.304C156.25 552.15 140.301 536.128 136.385 518.186C135.225 513.607 134.9 511.166 134.505 506.489C122.237 495.889 119.321 493.04 123.993 476.443C122.393 474.682 120.785 472.933 119.804 470.781C117.097 466.884 115.645 462.253 115.641 457.508C115.636 454.98 116.134 452.475 117.105 450.141C118.077 447.807 119.503 445.69 121.3 443.912Z" fill="url(#paint10_linear_233_136)"/>
<path d="M183.957 416.999C197.337 420.887 209.841 432.846 206.866 447.934C186.857 442.882 170.745 448.404 152.517 457.565C150.767 458.445 147.751 460.526 147.245 462.338L144.656 463.472C139.805 466.526 136.435 466.645 130.34 471.14C112.12 453.233 143.35 429.851 160.396 428.279C166.708 427.697 184.678 431.657 189.01 428.113C187.342 424.296 185.362 420.991 183.957 416.999Z" fill="#FEE2BA"/>
<path d="M183.957 416.999C197.337 420.887 209.841 432.846 206.866 447.934C186.857 442.882 170.745 448.404 152.517 457.565C150.767 458.445 147.751 460.526 147.245 462.338L144.656 463.472L144.437 463.076C145.354 462.078 145.32 462.198 146.535 461.579L146.432 460.947L144.532 461.239C145.412 457.088 148.758 455.52 151.99 453.3C163.975 445.068 176.217 443.575 189.855 440.453C190.525 434.973 190.479 433.548 189.01 428.113C187.342 424.296 185.362 420.991 183.957 416.999Z" fill="#D98E5A"/>
<path d="M210.576 490.16C224.124 492.053 239.095 502.748 236.158 517.522C235.926 518.686 235.808 519.131 235.139 520.144C232.034 521.804 223.785 516.627 218.852 516.729C209.237 516.928 184.158 519.935 178.648 528.924C176.475 532.469 184.817 548.604 186.786 553.515C182.414 554.262 179.287 554.821 174.819 554.303C156.25 552.149 140.301 536.127 136.385 518.185C139.481 519.385 142.002 522.496 144.961 524.762C153.783 531.52 162.58 532.794 173.17 535.189C173.544 531.434 172.869 523.942 175.233 521.371C181.395 514.669 207.73 512.028 217.087 510.642C217.118 507.01 216.856 505.035 216.372 501.412C214.924 496.711 213.186 494.307 210.576 490.16Z" fill="#D98E5A"/>
<path d="M200.442 453.996C210.168 455.641 221.716 462.662 227.489 470.727C232.139 477.222 232.188 482.519 231.498 489.963C217.315 483.303 209.238 482.318 193.927 486.044C188.613 487.337 184 488.303 178.68 490.241C175.614 491.386 172.61 492.688 169.679 494.142L169.498 494.718L169.666 494.93L167.338 495.733C164.865 495.619 161.195 497.154 158.959 498.166C169.296 481.843 190.568 483.196 206.607 477.109C210.153 467.082 206.552 461.514 200.442 453.996Z" fill="url(#paint11_linear_233_136)"/>
<path d="M169.666 494.93C180.75 493.564 200.664 489.107 210.576 490.161C213.186 494.308 214.924 496.712 216.372 501.413C211.365 500.904 207.943 500.746 203.073 500.703C194.84 500.63 175.152 502.456 168.06 499.849C167.04 498.144 167.401 498.047 167.338 495.733L169.666 494.93Z" fill="#FEE2BA"/>
<path d="M119.804 470.781C117.097 466.884 115.645 462.253 115.641 457.508C115.636 454.98 116.134 452.476 117.105 450.142C118.077 447.808 119.503 445.69 121.3 443.912L121.573 444.873C116.712 451.37 117.087 455.431 117.787 463.35C118.007 465.846 120.042 468.9 119.804 470.781Z" fill="#FDFDFD"/>
<path d="M345.393 128.406C374.29 127.666 412.124 128.872 441.149 132.393C444.951 132.655 450.028 133.3 453.592 133.361C456.234 133.645 462.279 134.136 464.62 134.648C467.031 134.979 474.591 135.761 476.398 136.817C474.667 137.48 474.194 137.421 472.389 137.514C464.826 139.169 454.686 140.373 446.57 141.964L378.931 155.787C353.847 161.134 328.72 166.279 303.553 171.221C263.954 178.936 212.823 187.707 172.703 182.226C171.412 182.26 170.817 182.453 169.784 181.748C170.504 180.393 176.781 176.636 178.373 175.61C201.889 160.409 227.582 148.876 254.568 141.406C265.095 138.774 276.14 135.989 286.813 134.144C293.404 131.524 337.352 128.316 345.393 128.406Z" fill="#56606F"/>
<path d="M345.393 128.406C374.29 127.666 412.124 128.872 441.149 132.393C438.38 133.219 437.687 133.25 434.777 133.399C424.851 133.234 422.729 133.289 412.767 135.852C374.011 146.534 335.338 154.555 295.797 161.771C281.254 164.425 261.501 168.86 247.311 170.426C255.963 160.8 265.824 152.286 275.254 143.397C278.598 140.246 283.513 137.563 286.813 134.144C293.404 131.524 337.352 128.316 345.393 128.406Z" fill="#8B9096"/>
<path d="M345.393 128.406C374.29 127.666 412.124 128.872 441.149 132.393C438.38 133.219 437.687 133.25 434.777 133.399C424.851 133.234 422.729 133.289 412.767 135.852C392.639 135.925 365.019 134.959 345.13 132.954L351.333 132.999C351.401 131.642 351.57 130.587 351.17 129.294C349.595 128.591 345.653 129.285 343.091 129.222C344.426 128.96 344.182 129.154 345.393 128.406Z" fill="#D0D1D2"/>
<path d="M254.568 141.406C265.095 138.774 276.14 135.989 286.813 134.144C283.513 137.563 278.598 140.246 275.254 143.397C265.824 152.286 255.963 160.8 247.311 170.426C241.73 172.008 235.483 172.705 229.743 173.66C215.226 176.076 200.346 177.109 185.825 179.068C182.283 179.77 176.046 181.005 172.703 182.226C171.412 182.26 170.817 182.453 169.784 181.748C170.504 180.393 176.781 176.636 178.373 175.61C201.889 160.409 227.582 148.876 254.568 141.406Z" fill="#D0D1D2"/>
<path d="M172.703 182.225C171.412 182.259 170.817 182.452 169.784 181.747C170.504 180.392 176.781 176.635 178.373 175.609C201.889 160.409 227.582 148.875 254.568 141.405C255.316 144.5 254.052 145.153 252.075 147.649C235.455 154.902 219.113 162.625 202.856 170.655C199.095 172.513 187.304 175.985 185.825 179.067C182.283 179.769 176.046 181.004 172.703 182.225Z" fill="#FDFDFD"/>
<path d="M441.149 132.393C444.951 132.655 450.028 133.3 453.592 133.361C447.585 135.086 440.976 133.975 434.777 133.399C437.687 133.25 438.38 133.219 441.149 132.393Z" fill="#9EA1A5"/>
<path d="M464.62 134.647C467.031 134.978 474.591 135.76 476.398 136.816C474.667 137.479 474.194 137.42 472.389 137.513L471.92 137.297L471.525 136.736C470.132 136.071 464.193 135.371 462.28 135.055L464.62 134.647Z" fill="#8B9096"/>
<path d="M198.807 382.679C203.852 376.527 213.555 362.567 217.38 358.147C224.037 350.453 247.365 335.456 256.561 330.092L259.939 336.216C262.429 340.3 264.894 344.399 267.334 348.513C271.186 354.226 275.239 361.562 278.837 367.583C275.366 389.655 274.929 407.445 275.032 429.68C275.654 465.414 281.602 500.856 292.681 534.836C295.431 543.161 298.644 551.272 302.076 559.333C303.02 561.551 303.99 563.757 304.679 566.07C300.571 562.801 296.834 559.603 293.393 555.608C283.969 546.432 272.343 530.849 264.337 520.275C259.117 513.381 254.885 506.161 249.086 499.254C255.854 481.253 250.334 474.779 240.176 460.341C246.309 454.518 247.863 452.733 252.338 445.585C254.568 441.65 256.89 437.742 258.711 433.605C247.253 417.744 239.8 401.482 218.348 396.919C208.436 394.811 203.443 397.884 195.564 403.156C193.74 399.628 192.105 396.386 190.457 392.776C192.596 389.719 196.211 385.34 198.807 382.679Z" fill="#8B9096"/>
<path d="M267.334 348.513C271.186 354.226 275.239 361.562 278.837 367.583C275.366 389.655 274.929 407.445 275.032 429.68C273.517 424.866 244.52 396.494 243.693 391.145C242.717 384.825 262.631 354.392 267.334 348.513Z" fill="#56606F"/>
<path d="M240.176 460.341C246.309 454.518 247.863 452.733 252.338 445.585C256.702 455.213 259.677 465.263 263.278 475.158C271.264 497.1 278.243 519.398 286.785 541.127C288.657 545.887 292.967 550.834 293.393 555.608C283.969 546.432 272.343 530.849 264.337 520.275C259.117 513.381 254.885 506.161 249.086 499.254C255.854 481.253 250.334 474.779 240.176 460.341Z" fill="#56606F"/>
<path d="M198.807 382.679C203.852 376.527 213.555 362.567 217.38 358.147C224.037 350.453 247.365 335.456 256.561 330.092L259.939 336.216C256.92 338.862 252.578 341.412 249.216 343.761C232.107 355.714 216.696 371.011 199.689 382.974L198.807 382.679Z" fill="url(#paint12_linear_233_136)"/>
<path d="M450.156 299.981C457.022 302.538 461.26 306.97 466.219 312.287C449.137 350.294 416.635 405 389.655 436.406C388.252 437.849 386.131 440.82 384.841 442.517C376.283 434.235 368.541 424.538 359.979 416.169C355.701 411.988 349.257 408.391 345.443 404.114C351.136 399.645 370.02 390.158 377.557 385.698C403.328 370.448 420.654 356.478 440.857 334.725C446.805 327.219 450.454 322.465 453.82 313.361C452.657 308.915 451.531 304.357 450.156 299.981Z" fill="#BFD9E5"/>
<path d="M440.857 334.726C447.193 338.805 444.15 343.042 440.536 347.864C427.545 365.199 411.055 379.289 394.883 393.527C390.411 397.475 381.962 403.362 378.425 407.04C381.102 413.308 383.673 419.444 386.101 425.819C387.016 428.222 388.738 434.745 389.655 436.407C388.252 437.85 386.131 440.821 384.841 442.518C376.283 434.236 368.541 424.539 359.979 416.17C355.701 411.989 349.257 408.392 345.443 404.115C351.136 399.646 370.02 390.159 377.557 385.699C403.328 370.449 420.654 356.479 440.857 334.726Z" fill="#FDFDFD"/>
<path d="M366.109 434.306C369.941 439.049 375.876 446.542 380.204 450.731C380.782 451.697 381.855 453.079 381.293 454.216C366.634 483.856 347.149 511.309 326.459 537.04C321.755 542.89 317.191 549.113 312.474 554.074C309.447 548.841 305.886 541.448 303.481 535.835C318.756 520.063 334.22 505.146 347.846 487.867C349.816 485.369 352.137 482.805 354.27 480.424C352.299 472.143 350.745 462.171 349.212 453.689C353.65 449.063 357.929 444.046 362.165 439.219C363.455 437.601 364.779 435.878 366.109 434.306Z" fill="url(#paint13_linear_233_136)"/>
<path d="M366.109 434.306C369.941 439.049 375.876 446.542 380.204 450.731C377.914 452.492 377.17 453.097 375.253 455.236C371.85 459.719 358.521 477.322 354.27 480.424C352.299 472.143 350.745 462.171 349.212 453.689C353.65 449.063 357.929 444.046 362.165 439.219C363.455 437.601 364.779 435.878 366.109 434.306Z" fill="#D0D1D2"/>
<path d="M366.109 434.306C369.941 439.049 375.876 446.542 380.204 450.731C377.914 452.492 377.17 453.097 375.253 455.236C371.05 452.556 365.458 443.692 362.165 439.219C363.455 437.601 364.779 435.878 366.109 434.306Z" fill="#BFD9E5"/>
<path d="M544.795 365.281C552.194 368.147 558.711 368.781 565.569 371.165C564.274 372.197 562.084 374.055 560.74 374.841C544.766 389.838 559.374 396.137 574.742 396.798C587.608 397.351 598.332 388.73 608.46 381.815C611.681 383.251 616.659 385.097 618.857 387.752L618.92 388.728C613.654 393.295 576.434 410.136 569.111 412.608C558.195 407.736 541.181 397.155 530.537 390.954C525.373 387.935 521.098 385.535 515.74 382.853C518.867 380.655 527.846 374.836 531.126 373.579C535.638 370.741 540.195 367.975 544.795 365.281Z" fill="#8B9096"/>
<path d="M544.795 365.281C552.194 368.147 558.711 368.781 565.569 371.165C564.274 372.197 562.084 374.055 560.74 374.841C558.186 374.702 556.49 374.721 553.931 374.834C552.975 376.559 545.06 380.956 542.673 382.567C538.68 385.264 534.567 388.384 530.537 390.954C525.373 387.935 521.098 385.535 515.74 382.853C518.867 380.655 527.846 374.836 531.126 373.579C535.638 370.741 540.195 367.975 544.795 365.281Z" fill="#56606F"/>
<path d="M544.795 365.281C552.194 368.147 558.711 368.781 565.569 371.165C564.274 372.197 562.084 374.055 560.74 374.841C558.186 374.702 556.49 374.721 553.931 374.834C551.252 374.708 544.979 373.845 542.471 373.15C536.675 371.544 535.876 373.307 531.126 373.579C535.638 370.741 540.195 367.975 544.795 365.281Z" fill="url(#paint14_linear_233_136)"/>
<path d="M297.839 392.268C303.705 393.179 309.616 393.775 315.546 394.053C319.975 394.268 328.131 393.863 332.093 394.727C336.776 397.094 339.033 401.345 341.912 405.695C324.182 406.301 325.979 406.635 315.558 420.905C308.988 429.832 302.747 438.998 296.85 448.384C294.952 439.048 293.14 427.482 294.036 417.957C294.366 410.444 296.342 399.604 297.839 392.268Z" fill="#FDFDFD"/>
<path d="M297.839 392.268C303.705 393.179 309.616 393.775 315.546 394.053C319.975 394.268 328.131 393.863 332.093 394.727C323.394 394.461 324.11 396.531 317.446 402.053C313.999 404.909 310.436 407.849 306.853 410.552C303.43 412.932 298.16 418.314 294.036 417.957C294.366 410.444 296.342 399.604 297.839 392.268Z" fill="#BFD9E5"/>
<path d="M285.573 439.643C287.72 443.555 292.107 459.291 293.825 464.308C299.916 482.092 306.66 495.013 317.466 510.152C314.927 514.488 311.698 518.171 308.441 521.963L301.429 529.762C292.771 509.779 286.332 482.945 285 461.188C284.624 455.029 285.248 446.126 285.573 439.643Z" fill="url(#paint15_linear_233_136)"/>
<path d="M289.666 95.9673C294.066 95.0233 299.931 94.7533 304.451 94.5293C304.677 103.383 304.667 112.242 304.421 121.095C299.057 121.818 293.297 122.482 288.009 123.486C280.944 124.442 272.794 126.225 265.865 127.821C266.254 118.75 266.962 109.696 267.986 100.674C274.233 98.4333 283.003 97.0993 289.666 95.9673Z" fill="#56606F"/>
<path d="M289.666 95.9673C294.066 95.0233 299.931 94.7533 304.451 94.5293C304.677 103.383 304.667 112.242 304.421 121.095C299.057 121.818 293.297 122.482 288.009 123.486C288.063 114.658 290.552 104.899 290.661 96.5743L289.666 95.9673Z" fill="#3F4858"/>
<path d="M205.429 410.951C210.121 408.216 214.532 407.615 219.83 409C223.251 409.905 226.453 411.495 229.241 413.675C232.028 415.855 234.343 418.579 236.045 421.682C237.061 423.494 238.281 426.235 238.914 428.213C239.912 430.989 240.254 433.959 239.914 436.89C239.154 443.064 236.036 447.343 231.277 451.047C226.929 448.517 223.16 446.593 218.682 444.364C214.193 433.055 216.115 430.835 207.502 420.451C205.223 418.534 202.053 416.492 199.539 414.778C201.603 413.251 203.075 412.005 205.429 410.951Z" fill="#D98E5A"/>
<path d="M205.429 410.951C210.121 408.216 214.532 407.615 219.83 409C223.251 409.905 226.453 411.495 229.241 413.675C232.028 415.855 234.343 418.579 236.045 421.682C237.061 423.494 238.281 426.235 238.914 428.213L237.858 428.502C236.044 427.715 236.371 427.554 234.995 425.695C225.554 425.378 225.228 409.637 207.502 420.451C205.223 418.534 202.053 416.492 199.539 414.778C201.603 413.251 203.075 412.005 205.429 410.951Z" fill="#FEC083"/>
<path d="M205.429 410.951C210.121 408.216 214.532 407.615 219.83 409C223.251 409.905 226.453 411.495 229.241 413.675C232.028 415.855 234.343 418.579 236.045 421.682C237.061 423.494 238.281 426.235 238.914 428.213L237.858 428.502C236.044 427.715 236.371 427.554 234.995 425.695C226.761 415.089 221.851 412.463 208.419 411.531C206.884 411.424 206.887 411.622 205.429 410.951Z" fill="#FEE2BA"/>
<path d="M222.201 527.285L226.45 528.231C227.999 528.195 229.667 528.076 230.704 529.275C236.268 535.716 243.242 550.903 246.727 558.39C242.992 556.338 241.252 556.46 238.931 555.344L235.144 555.108C225.69 556.233 216.419 559.89 209.221 566.191C207.454 563.059 208.995 562.177 206.755 558.404L212.112 554.01L210.058 548.281C207.313 542.76 204.607 536.356 201.895 530.646C204.691 529.895 210.826 527.784 213.261 528.728C213.887 528.971 214.022 529.788 214.384 530.61C216.91 535.696 219.003 541.016 221.167 546.27C224.569 545.956 227.906 545.855 231.318 545.724C228.669 539.776 225.165 533.165 222.201 527.285Z" fill="#9EA1A5"/>
<path d="M226.45 528.232C227.999 528.196 229.667 528.077 230.704 529.276C236.268 535.717 243.242 550.904 246.727 558.391C242.992 556.339 241.252 556.461 238.931 555.345L238.84 555.227C236.724 554.142 236.554 551.691 235.671 549.062C232.838 542.139 232.057 533.289 226.45 528.232Z" fill="#707782"/>
<path d="M201.895 530.647C204.691 529.896 210.826 527.785 213.261 528.729C213.887 528.972 214.022 529.789 214.384 530.611C212.516 536.375 212.14 544.56 210.058 548.282C207.313 542.761 204.607 536.357 201.895 530.647Z" fill="url(#paint16_linear_233_136)"/>
<path d="M235.144 555.108C235.046 553.615 232.103 550.744 232.263 547.578L233.003 547.369C233.962 548.264 234.334 548.815 235.671 549.061C236.554 551.69 236.724 554.141 238.84 555.226L238.931 555.344L235.144 555.108Z" fill="#8B9096"/>
<path d="M164.99 384.747C166.399 385.75 166.124 387.783 166.083 389.441C166.498 388.103 166.457 387.008 167.228 386.221C168.042 386.964 167.892 386.724 168.033 387.054C170.49 387.217 171.149 387.095 173.599 386.688C177.576 393.701 179.806 400.95 183.761 407.707C179.532 407.248 175.948 407.246 171.717 407.208L161.231 407.789C156.671 408.255 154.141 408.67 149.802 410.006C147.943 407.765 145.082 399.941 143.886 396.874C148.025 395.012 151.324 392.862 155.1 390.379L155.977 390.205C159.022 388.035 161.719 386.574 164.99 384.747Z" fill="#8B9096"/>
<path d="M155.1 390.379L155.977 390.205C157.209 394.037 160.804 404.414 161.231 407.789C156.671 408.255 154.141 408.67 149.802 410.006C147.943 407.765 145.082 399.941 143.886 396.874C148.025 395.012 151.324 392.862 155.1 390.379Z" fill="url(#paint17_linear_233_136)"/>
<path d="M164.99 384.747C165.09 392.568 168.415 399.137 171.421 406.24C171.697 406.893 171.583 406.496 171.717 407.208L161.231 407.789C160.804 404.414 157.209 394.037 155.977 390.205C159.022 388.035 161.719 386.574 164.99 384.747Z" fill="#FDFDFD"/>
<path d="M159.128 568.114C146.519 561.155 136.247 545.599 134.161 531.451C138.364 539.331 140.645 542.608 147.166 548.843C160.596 559.049 171.136 564.493 188.464 561.157C189.741 564.175 191.06 567.174 192.42 570.155C182.52 574.504 168.025 574.99 159.128 568.114Z" fill="#D98E5A"/>
<path d="M159.128 568.114C146.519 561.155 136.247 545.599 134.161 531.451C138.364 539.331 140.645 542.608 147.166 548.843C148.486 557.967 162.617 563.053 159.128 568.114Z" fill="#FEE2BA"/>
<path d="M437.876 309.563C440.746 311.832 442.42 315.898 443.661 319.238C435.661 333.602 421.852 346.833 408.844 356.828C404.513 360.156 400.058 363.134 395.824 366.601L391.935 369.655C396.548 362.781 403.668 356.379 409.309 350.001C420.986 336.8 429.246 324.789 437.876 309.563Z" fill="url(#paint18_linear_233_136)"/>
<path d="M247.818 210.408C252.797 211.183 255.951 208.418 261.251 207.173C260.992 218.313 264.105 226.764 275.165 231.008L272.684 239.981C270.149 238.694 262.914 236.576 259.518 235.313L258.35 235.942L256.085 234.981C254.151 233.626 253.122 233.288 253.664 230.85C251.451 228.11 250.861 227.324 249.213 224.206C247.897 218.793 247.486 215.979 247.818 210.408Z" fill="#FDFDFD"/>
<path d="M253.664 230.85C255.958 232.951 256.731 233.734 259.518 235.313L258.35 235.942L256.085 234.981C254.151 233.626 253.122 233.288 253.664 230.85Z" fill="#E37746"/>
<path d="M231.808 190.03C237.869 190.665 243.047 191.259 249.151 191.329C238.89 201.151 239.995 213.726 248.53 224.266L249.213 224.205C250.861 227.323 251.451 228.109 253.664 230.849C253.122 233.287 254.151 233.625 256.085 234.98C252.683 235.19 244.621 236.907 243.521 236.853C243.163 234.84 239.496 226.051 238.553 223.012C234.964 211.447 233.441 201.961 231.808 190.03Z" fill="#D98E5A"/>
<path d="M313.048 437.675C313.553 438.241 316.8 449.346 317.917 452.078C316.635 455.073 307.228 478.098 306.355 478.8L305.561 477.653C302.787 471.607 300.218 463.969 298.209 457.627C302.871 451.079 308.204 444.426 313.048 437.675Z" fill="#FDFDFD"/>
<path d="M566.949 378.076C576.378 369.073 585.56 372.849 596.571 375.72C594.673 378.283 592.281 380.396 589.738 382.311C586.691 384.905 583.135 386.833 579.299 387.971C571.371 390.394 556.424 389.555 566.949 378.076Z" fill="#707782"/>
<path d="M566.949 378.076C576.378 369.073 585.56 372.849 596.571 375.72C594.673 378.283 592.281 380.396 589.738 382.311C583.027 380.137 573.972 378.995 566.949 378.076Z" fill="#D0D1D2"/>
<path d="M330 453.668L330.71 453.938C331.137 455.53 328.318 463.862 327.67 465.774C323.766 477.291 321.434 487.212 320.823 499.423L317.025 495.016C315.292 493.096 313.022 490.085 311.352 487.988C315.875 478.065 320.433 465.069 325.478 455.891C326.894 455.099 328.519 454.37 330 453.668Z" fill="url(#paint19_linear_233_136)"/>
<path d="M337.176 414.992L338.156 415.035C338.436 416.808 332.403 435.638 331.537 438.59L324.822 443.35L323.978 443.562C322.5 440.821 323.589 420.351 324.351 416.172C328.053 415.581 333.336 415.305 337.176 414.992Z" fill="#56606F"/>
<path d="M536.186 151.296C538.46 151.185 539.269 151.256 540.946 153.003L540.879 154.068C534.9 160.999 505.834 162.483 496.402 160.678C493.439 160.036 490.433 158.9 487.547 157.911C502.552 158.9 521.975 156.081 536.186 151.296Z" fill="#56606F"/>
<path d="M240.113 110.222L241.033 110.382C241.292 112.061 237.169 130.947 236.593 133.877C233.794 134.93 230.98 135.942 228.151 136.913C227.568 137.159 227.922 137.102 227.083 136.8C227.007 134.405 231.109 117.053 231.888 114.163C234.405 112.719 237.446 111.437 240.113 110.222Z" fill="#56606F"/>
<path d="M247.818 210.408C248.729 206.378 249.822 203.288 251.94 199.782C256.486 192.261 263.18 193.068 270.721 193.035C264.302 197.249 263.41 200.112 261.251 207.173C255.951 208.418 252.797 211.183 247.818 210.408Z" fill="#D0D1D2"/>
<path d="M248.494 517.127C248.995 510.071 248.441 506.913 243.85 501.161C241.931 498.758 238.259 494.584 239.345 491.396C242.322 493.316 250.439 508.64 251.483 512.687C252.522 516.712 251.801 521.711 250.831 525.747C250.529 527.974 249.957 530.495 247.744 531.336C243.877 529.05 247.418 520.21 248.494 517.127Z" fill="#9EA1A5"/>
<path d="M248.494 517.127C249.073 519.643 249.793 523.509 250.831 525.748C250.529 527.975 249.957 530.495 247.744 531.336C243.877 529.05 247.418 520.21 248.494 517.127Z" fill="#56606F"/>
<path d="M280.547 196.131C287.465 198.729 285.401 206.153 280.502 209.936C272.272 207.286 273.771 200.11 280.547 196.131Z" fill="#FDFDFD"/>
<path d="M206.755 558.404C208.995 562.177 207.454 563.059 209.221 566.191C206.279 569.447 203.843 572.796 201.217 576.297L199.181 568.321C201.52 564.1 203.202 561.649 206.755 558.404Z" fill="#707782"/>
<path d="M87.588 390.227C91.034 391.501 93.418 391.253 96.055 392.011C96.356 394.198 96.701 397.453 97.246 399.502C91.182 398.283 87.21 397.291 81.416 395.171C83.564 394.807 84.075 395.694 86.495 394.965C87.521 393.803 87.441 391.868 87.588 390.227Z" fill="#D0D1D2"/>
<defs>
<linearGradient id="paint0_linear_233_136" x1="423.599" y1="536.941" x2="435.904" y2="564.294" gradientUnits="userSpaceOnUse">
<stop stop-color="#4C5668"/>
<stop offset="1" stop-color="#787E87"/>
</linearGradient>
<linearGradient id="paint1_linear_233_136" x1="494.121" y1="416.329" x2="514.731" y2="271.641" gradientUnits="userSpaceOnUse">
<stop stop-color="#CBCACB"/>
<stop offset="1" stop-color="#F0F0F0"/>
</linearGradient>
<linearGradient id="paint2_linear_233_136" x1="194.346" y1="603.015" x2="168.012" y2="582.17" gradientUnits="userSpaceOnUse">
<stop stop-color="#404859"/>
<stop offset="1" stop-color="#5B616C"/>
</linearGradient>
<linearGradient id="paint3_linear_233_136" x1="291.132" y1="286.807" x2="337.012" y2="276.789" gradientUnits="userSpaceOnUse">
<stop stop-color="#EE834D"/>
<stop offset="1" stop-color="#D66239"/>
</linearGradient>
<linearGradient id="paint4_linear_233_136" x1="178.802" y1="379.289" x2="156.463" y2="350.716" gradientUnits="userSpaceOnUse">
<stop stop-color="#525A67"/>
<stop offset="1" stop-color="#828991"/>
</linearGradient>
<linearGradient id="paint5_linear_233_136" x1="58.1938" y1="399.733" x2="45.2808" y2="322.148" gradientUnits="userSpaceOnUse">
<stop stop-color="#9FA6AA"/>
<stop offset="1" stop-color="#BEC7D2"/>
</linearGradient>
<linearGradient id="paint6_linear_233_136" x1="207.357" y1="309.219" x2="213.309" y2="276.866" gradientUnits="userSpaceOnUse">
<stop stop-color="#838C96"/>
<stop offset="1" stop-color="#ACBAC3"/>
</linearGradient>
<linearGradient id="paint7_linear_233_136" x1="126.01" y1="206.313" x2="118.235" y2="209.16" gradientUnits="userSpaceOnUse">
<stop stop-color="#C5DBEA"/>
<stop offset="1" stop-color="#EBEFF6"/>
</linearGradient>
<linearGradient id="paint8_linear_233_136" x1="101.233" y1="259.403" x2="115.468" y2="377.017" gradientUnits="userSpaceOnUse">
<stop stop-color="#389BD4"/>
<stop offset="1" stop-color="#6CBFEB"/>
</linearGradient>
<linearGradient id="paint9_linear_233_136" x1="58.7312" y1="240.74" x2="136.924" y2="313.701" gradientUnits="userSpaceOnUse">
<stop stop-color="#87CEF5"/>
<stop offset="1" stop-color="#C6EBFE"/>
</linearGradient>
<linearGradient id="paint10_linear_233_136" x1="197.548" y1="522.175" x2="135.365" y2="432.009" gradientUnits="userSpaceOnUse">
<stop stop-color="#FFD29C"/>
<stop offset="1" stop-color="#FFFAE8"/>
</linearGradient>
<linearGradient id="paint11_linear_233_136" x1="184.473" y1="468.959" x2="207.006" y2="503.238" gradientUnits="userSpaceOnUse">
<stop stop-color="#BD8456"/>
<stop offset="1" stop-color="#E4AF7A"/>
</linearGradient>
<linearGradient id="paint12_linear_233_136" x1="232.922" y1="362.022" x2="223.416" y2="352.746" gradientUnits="userSpaceOnUse">
<stop stop-color="#CACCCF"/>
<stop offset="1" stop-color="#F3F1F2"/>
</linearGradient>
<linearGradient id="paint13_linear_233_136" x1="349.838" y1="504.937" x2="336.289" y2="494.511" gradientUnits="userSpaceOnUse">
<stop stop-color="#003C84"/>
<stop offset="1" stop-color="#085FB2"/>
</linearGradient>
<linearGradient id="paint14_linear_233_136" x1="539.943" y1="364.62" x2="558.317" y2="378.171" gradientUnits="userSpaceOnUse">
<stop stop-color="#C0C2C4"/>
<stop offset="1" stop-color="#E2E4E6"/>
</linearGradient>
<linearGradient id="paint15_linear_233_136" x1="303.397" y1="481.473" x2="284.56" y2="489.893" gradientUnits="userSpaceOnUse">
<stop stop-color="#0C6AC1"/>
<stop offset="1" stop-color="#003881"/>
</linearGradient>
<linearGradient id="paint16_linear_233_136" x1="207.917" y1="529.458" x2="209.677" y2="544.368" gradientUnits="userSpaceOnUse">
<stop stop-color="#4A5363"/>
<stop offset="1" stop-color="#656E7C"/>
</linearGradient>
<linearGradient id="paint17_linear_233_136" x1="160.139" y1="400.538" x2="144.872" y2="398.611" gradientUnits="userSpaceOnUse">
<stop stop-color="#999EA8"/>
<stop offset="1" stop-color="#B2B8BB"/>
</linearGradient>
<linearGradient id="paint18_linear_233_136" x1="434.916" y1="344.843" x2="402.319" y2="335.761" gradientUnits="userSpaceOnUse">
<stop stop-color="#E66F3F"/>
<stop offset="1" stop-color="#F0934E"/>
</linearGradient>
<linearGradient id="paint19_linear_233_136" x1="323.2" y1="495.946" x2="319.675" y2="455.629" gradientUnits="userSpaceOnUse">
<stop stop-color="#707684"/>
<stop offset="1" stop-color="#A6ABAF"/>
</linearGradient>
</defs>
</svg>
