<svg width="412" height="344" viewBox="0 0 412 344" fill="none" xmlns="http://www.w3.org/2000/svg">
<path d="M182.028 0.19929C190.254 -0.550745 197.661 0.781513 204.93 4.78769C213.927 9.78566 220.582 18.1377 223.446 28.0229C227.938 43.9002 222.011 58.9629 205.631 63.947C199.472 65.8206 188.198 69.0049 185.021 75.1007C184.11 76.8543 183.42 78.7132 182.964 80.6355C181.263 87.5361 180.4 94.7474 179.042 101.737C178.051 106.843 176.344 112.222 175.947 117.377C175.769 119.695 176.056 122.165 176.784 124.375C177.383 126.191 178.425 127.947 179.783 129.297C183.067 132.562 187.725 134.508 191.258 137.899C194.468 140.98 196.233 145.459 200.464 147.419C205.077 149.556 210.549 148.458 215.127 146.809C225.612 143.033 235.555 137.548 245.51 132.593C256.386 127.179 285.335 114.308 291.923 104.827C294.495 101.126 294.326 97.1563 295.136 92.9199C295.661 90.2259 296.529 87.61 297.717 85.1358C299.659 81.0582 302.4 77.4119 305.777 74.4127C309.154 71.4136 313.098 69.1226 317.376 67.6755C321.799 66.1281 326.484 65.4732 331.162 65.7484C335.839 66.0237 340.416 67.2238 344.627 69.2793C363.388 78.5577 370.047 103.734 361.028 122.016C353.511 137.345 333.482 140.252 319.399 132.648C313.189 129.412 307.5 124.711 300.097 125.038C290.79 125.449 281.927 131.535 273.928 135.854C266.606 139.802 259.194 143.581 251.698 147.189C244.585 150.643 237.216 153.771 229.979 156.961C225.793 158.859 221.545 160.422 217.502 162.643C212.57 165.351 209.95 169.903 212.194 175.425C213.666 179.047 215.946 182.772 219.715 184.317C223.09 185.7 226.851 186.07 230.448 186.502C251.645 188.498 272.975 189.652 294.194 191.37C303.018 192.078 311.836 192.84 320.65 193.656C329.048 194.443 341.348 196.265 349.514 195.551C354.503 195.114 357.422 188.981 360.681 185.75C363.603 182.896 367.097 180.692 370.933 179.285C396.713 169.594 418.818 195.518 408.394 219.829C400.567 238.081 373.481 240.799 361.787 224.86C357.843 219.48 355.904 212.705 349.359 210.019C345.398 208.348 341.662 207.821 337.371 207.485C328.303 206.811 319.033 207.22 309.914 207.062C291.453 206.78 273.002 206.078 254.573 204.955C247.658 204.481 240.756 203.845 233.87 203.048C228.716 202.434 223.452 201.698 218.375 201.41C205.41 200.673 206.649 210.175 199.865 217.29C193.745 223.329 186.098 225.787 191.03 236.09C195.048 244.19 198.651 252.48 202.405 260.69C205.443 267.333 209.629 278.065 215.963 281.947C220.07 284.463 227.222 284.659 232.162 286.764C241.443 290.719 245.857 296.903 249.73 306.085C250.595 308.935 251.232 311.672 251.354 314.66C251.498 318.296 250.922 321.924 249.659 325.336C248.396 328.748 246.471 331.877 243.994 334.543C238.303 340.63 230.606 343.459 222.372 343.672C213.609 343.898 205.112 340.648 198.736 334.632C190.449 326.717 187.451 314.769 192.131 304.202C195.264 297.261 200.149 293.512 197.231 285.288C193.718 275.385 187.874 266.662 183.821 256.978C182.867 254.7 182.113 252.671 181.283 250.359C179.81 246.511 178.779 241.299 175.484 238.515C167.243 231.555 156.114 236.887 146.227 234.85C141.319 233.838 132.452 229.551 128.668 230.17C115.019 232.402 107.022 250.466 97.3203 259.158C88.297 267.722 80.4068 274.738 71.9151 283.425C68.507 286.98 61.9621 296.789 63.8737 302.293C70.571 321.577 59.2175 338.948 38.1451 340.842C20.3443 342.443 1.57876 326.784 0.685416 307.538C0.496645 303.556 1.10379 299.576 2.47134 295.831C3.8389 292.087 5.93941 288.653 8.65 285.73C16.0993 277.718 26.621 274.256 37.2465 276.894C43.2896 278.394 48.2438 281.277 53.4022 276.118C57.0168 272.502 60.4073 268.523 63.7749 264.676L82.3564 243.459C87.4443 237.735 92.6252 232.093 97.8968 226.537C102.146 222.039 106.876 218.639 108.392 212.429C110.523 204.288 105.538 197.715 102.812 190.465C99.138 180.691 98.4154 170.691 100.745 160.497C102.323 153.591 106.458 147.728 100.292 141.638C97.5726 138.952 94.7019 136.603 91.8035 134.067C87.2151 130.06 82.7073 125.961 78.2828 121.774C73.259 117.003 68.3314 112.133 63.503 107.164C54.3597 97.8586 47.7735 88.6324 33.5179 91.3651C17.6786 94.4016 1.70288 80.6556 0.127277 64.8926C-0.207549 61.5993 0.119872 58.2724 1.09026 55.1076C2.06064 51.9428 3.65438 49.0042 5.77765 46.4647C8.12146 43.6201 11.0055 41.268 14.2632 39.544C17.5209 37.82 21.0878 36.7583 24.758 36.4202C28.0647 36.0919 31.4036 36.4237 34.581 37.3962C37.7584 38.3686 40.7111 39.9625 43.2676 42.0853C52.4129 49.7604 53.7342 60.1947 53.1752 71.3579C52.9004 76.8474 60.5261 83.8827 64.0856 87.6529C77.5992 101.725 92.0203 114.897 107.256 127.083C115.604 133.831 117.136 132.39 126.061 127.042C132.648 123.094 139.016 123.231 146.339 123.126C150.001 123.074 153.665 120.344 155.919 117.501C161.433 110.547 162.715 101.746 164.343 93.2947C165.752 85.5342 167.625 75.8144 166.96 67.9429C166.506 60.0486 160.378 56.3817 155.999 50.7542C147.474 39.7976 147.717 23.6394 156.446 12.8711C162.839 4.98408 172.25 1.33843 182.028 0.19929Z" fill="#C15F3C"/>
</svg>
